<svg width="659" height="661" viewBox="0 0 659 661" fill="none" xmlns="http://www.w3.org/2000/svg">
<ellipse cx="329.242" cy="330.468" rx="328.801" ry="330.028" fill="#FFBB98" fill-opacity="0.6"/>
<circle cx="329.739" cy="329.739" r="166.902" fill="#FFBB98"/>
<path d="M495.692 328.24C540.541 328.24 578.15 365.54 563.709 408C562.035 412.92 560.205 417.793 558.22 422.61C545.889 452.529 527.815 479.714 505.029 502.613C482.244 525.512 455.195 543.676 425.424 556.069C395.654 568.462 363.747 574.84 331.524 574.84C299.301 574.84 267.393 568.462 237.623 556.069C207.853 543.676 180.803 525.512 158.018 502.613C135.233 479.714 117.159 452.529 104.828 422.61C102.843 417.793 101.012 412.92 99.3389 408C84.8977 365.54 122.507 328.24 167.356 328.24H215.828C233.907 328.24 247.988 343.432 254.877 360.146C259.046 370.262 265.157 379.453 272.861 387.196C280.565 394.938 289.71 401.079 299.776 405.27C309.841 409.46 320.629 411.616 331.524 411.616C342.419 411.616 353.207 409.46 363.272 405.27C373.337 401.079 382.483 394.938 390.187 387.196C397.89 379.453 404.001 370.262 408.171 360.146C415.059 343.432 429.141 328.24 447.219 328.24H495.692Z" fill="#FFFCFA"/>
</svg>
